<svg width="69" height="51" viewBox="0 0 69 51" fill="none" xmlns="http://www.w3.org/2000/svg">
<circle cx="25.8176" cy="25.8176" r="25" fill="white"/>
<path d="M68.8176 26.8176L48.8176 16.8176V35.3176L68.8176 26.8176Z" fill="white"/>
<circle cx="25.3176" cy="26.3176" r="20.5" fill="url(#paint0_radial_3_241)"/>
<path d="M19.7942 24.8567C19.7634 24.6531 19.709 24.4708 19.6308 24.3098C19.5551 24.1488 19.4545 24.0115 19.329 23.8979C19.2059 23.7842 19.0556 23.6978 18.878 23.6386C18.7028 23.5771 18.5016 23.5463 18.2743 23.5463C17.8742 23.5463 17.4954 23.6481 17.1379 23.8517C16.7805 24.0529 16.4762 24.3501 16.2253 24.7431C15.9744 25.1337 15.8074 25.6119 15.7246 26.1777C15.6394 26.7435 15.6536 27.2229 15.7672 27.6159C15.8808 28.0089 16.0773 28.3072 16.3567 28.5108C16.6384 28.7144 16.9864 28.8162 17.4007 28.8162C17.7819 28.8162 18.1287 28.7416 18.4412 28.5925C18.7561 28.441 19.0153 28.2267 19.2189 27.9497C19.4225 27.6727 19.5515 27.3472 19.606 26.9732L19.8865 27.0229H17.8624L18.0151 26.0499H20.927L20.7921 26.9021C20.7021 27.5224 20.4926 28.0586 20.1635 28.5108C19.8344 28.9606 19.4213 29.3074 18.9242 29.5513C18.427 29.7951 17.8801 29.9171 17.2835 29.9171C16.6207 29.9171 16.0608 29.7667 15.6038 29.4661C15.1493 29.163 14.8238 28.7322 14.6273 28.1735C14.4308 27.6147 14.3894 26.9519 14.503 26.1848C14.5882 25.6024 14.7468 25.0804 14.9788 24.6188C15.2132 24.1571 15.502 23.7653 15.8453 23.4433C16.191 23.119 16.5769 22.8716 17.003 22.7011C17.4315 22.5307 17.8825 22.4455 18.356 22.4455C18.7513 22.4455 19.1124 22.5047 19.4391 22.623C19.7681 22.739 20.0511 22.9047 20.2878 23.1202C20.5245 23.3333 20.708 23.5877 20.8382 23.8837C20.9684 24.1772 21.0359 24.5016 21.0406 24.8567H19.7942ZM23.9863 22.5449L22.8997 29.8176H21.6816L22.7683 22.5449H23.9863ZM24.4062 29.8176L25.4929 22.5449H28.1598C28.7209 22.5449 29.1754 22.642 29.5234 22.8361C29.8714 23.0279 30.1141 23.2977 30.2514 23.6458C30.3911 23.9914 30.4266 24.3927 30.3579 24.8496C30.2916 25.3065 30.1366 25.7042 29.8927 26.0428C29.6489 26.3813 29.3234 26.6441 28.9162 26.8311C28.509 27.0181 28.0248 27.1117 27.4638 27.1117H25.5106L25.6704 26.0889H27.4815C27.8201 26.0889 28.1041 26.0416 28.3338 25.9469C28.5634 25.8498 28.7422 25.709 28.87 25.5243C29.0002 25.3396 29.0843 25.1147 29.1221 24.8496C29.16 24.5821 29.1423 24.3536 29.0689 24.1642C28.9955 23.9748 28.8582 23.8292 28.6569 23.7274C28.4581 23.6233 28.187 23.5712 27.8437 23.5712H26.5618L25.6243 29.8176H24.4062ZM28.5788 26.5293L29.8856 29.8176H28.5184L27.24 26.5293H28.5788ZM30.9199 29.8176L32.0065 22.5449H36.6585L36.5058 23.5783H33.0719L32.7594 25.6592H35.9519L35.7992 26.6926H32.6067L32.2942 28.7842H35.7637L35.6074 29.8176H30.9199Z" fill="white"/>
<defs>
<radialGradient id="paint0_radial_3_241" cx="0" cy="0" r="1" gradientUnits="userSpaceOnUse" gradientTransform="translate(25.3176 26.3176) rotate(88.4089) scale(19.9536)">
<stop stop-color="#42FF00"/>
<stop offset="0.310234" stop-color="#46E40F"/>
<stop offset="0.885056" stop-color="#409124"/>
<stop offset="1" stop-color="#84E762"/>
</radialGradient>
</defs>
</svg>
