<svg width="68" height="50" viewBox="0 0 68 50" fill="none" xmlns="http://www.w3.org/2000/svg">
<circle cx="25" cy="25" r="25" fill="white"/>
<path d="M68 26L48 16V34.5L68 26Z" fill="white"/>
<circle cx="24.5" cy="25.5" r="20.5" fill="url(#paint0_radial_22_101)"/>
<path d="M18.9766 24.0391C18.9458 23.8355 18.8913 23.6532 18.8132 23.4922C18.7375 23.3312 18.6368 23.1939 18.5114 23.0803C18.3883 22.9666 18.2379 22.8802 18.0604 22.821C17.8852 22.7595 17.6839 22.7287 17.4567 22.7287C17.0566 22.7287 16.6778 22.8305 16.3203 23.0341C15.9628 23.2353 15.6586 23.5324 15.4077 23.9254C15.1567 24.3161 14.9898 24.7943 14.907 25.3601C14.8217 25.9259 14.8359 26.4053 14.9496 26.7983C15.0632 27.1913 15.2597 27.4896 15.5391 27.6932C15.8208 27.8968 16.1688 27.9986 16.5831 27.9986C16.9643 27.9986 17.3111 27.924 17.6236 27.7749C17.9384 27.6233 18.1977 27.4091 18.4013 27.1321C18.6049 26.8551 18.7339 26.5296 18.7884 26.1555L19.0689 26.2053H17.0447L17.1974 25.2322H20.1094L19.9744 26.0845C19.8845 26.7048 19.675 27.241 19.3459 27.6932C19.0168 28.143 18.6037 28.4898 18.1065 28.7337C17.6094 28.9775 17.0625 29.0994 16.4659 29.0994C15.803 29.0994 15.2431 28.9491 14.7862 28.6484C14.3317 28.3454 14.0062 27.9145 13.8097 27.3558C13.6132 26.7971 13.5717 26.1342 13.6854 25.3672C13.7706 24.7848 13.9292 24.2628 14.1612 23.8011C14.3956 23.3395 14.6844 22.9477 15.0277 22.6257C15.3733 22.3014 15.7592 22.054 16.1854 21.8835C16.6139 21.7131 17.0649 21.6278 17.5384 21.6278C17.9337 21.6278 18.2947 21.687 18.6214 21.8054C18.9505 21.9214 19.2334 22.0871 19.4702 22.3026C19.7069 22.5156 19.8904 22.7701 20.0206 23.0661C20.1508 23.3596 20.2183 23.6839 20.223 24.0391H18.9766ZM23.1687 21.7273L22.082 29H20.864L21.9506 21.7273H23.1687ZM23.5886 29L24.6752 21.7273H27.3422C27.9032 21.7273 28.3578 21.8243 28.7058 22.0185C29.0538 22.2102 29.2965 22.4801 29.4338 22.8281C29.5734 23.1738 29.609 23.575 29.5403 24.032C29.474 24.4889 29.319 24.8866 29.0751 25.2251C28.8313 25.5637 28.5057 25.8265 28.0985 26.0135C27.6913 26.2005 27.2072 26.294 26.6461 26.294H24.693L24.8528 25.2713H26.6639C27.0024 25.2713 27.2865 25.224 27.5162 25.1293C27.7458 25.0322 27.9245 24.8913 28.0524 24.7067C28.1826 24.522 28.2666 24.2971 28.3045 24.032C28.3424 23.7644 28.3246 23.536 28.2512 23.3466C28.1779 23.1572 28.0405 23.0116 27.8393 22.9098C27.6404 22.8056 27.3694 22.7536 27.0261 22.7536H25.7441L24.8066 29H23.5886ZM27.7612 25.7116L29.068 29H27.7008L26.4224 25.7116H27.7612ZM30.1023 29L31.1889 21.7273H35.8409L35.6882 22.7607H32.2543L31.9418 24.8416H35.1342L34.9815 25.875H31.7891L31.4766 27.9666H34.946L34.7898 29H30.1023Z" fill="white"/>
<defs>
<radialGradient id="paint0_radial_22_101" cx="0" cy="0" r="1" gradientUnits="userSpaceOnUse" gradientTransform="translate(24.5 25.5) rotate(88.4089) scale(19.9536)">
<stop stop-color="#42FF00"/>
<stop offset="0.310234" stop-color="#46E40F"/>
<stop offset="0.885056" stop-color="#409124"/>
<stop offset="1" stop-color="#84E762"/>
</radialGradient>
</defs>
</svg>
