<svg width="235" height="51" viewBox="0 0 235 51" fill="none" xmlns="http://www.w3.org/2000/svg">
<path d="M69.0228 42.5V19.2273H78.341C80.0531 19.2273 81.4811 19.4811 82.6251 19.9886C83.769 20.4962 84.6288 21.2008 85.2046 22.1023C85.7804 22.9962 86.0682 24.0265 86.0682 25.1932C86.0682 26.1023 85.8864 26.9015 85.5228 27.5909C85.1592 28.2727 84.6592 28.8333 84.0228 29.2727C83.394 29.7045 82.6743 30.0114 81.8637 30.1932V30.4205C82.7501 30.4583 83.5796 30.7083 84.3523 31.1705C85.1326 31.6326 85.7652 32.2803 86.2501 33.1136C86.7349 33.9394 86.9773 34.9242 86.9773 36.0682C86.9773 37.303 86.6705 38.4053 86.0569 39.375C85.4508 40.3371 84.5531 41.0985 83.3637 41.6591C82.1743 42.2197 80.7084 42.5 78.966 42.5H69.0228ZM73.9432 38.4773H77.9546C79.3258 38.4773 80.3258 38.2159 80.9546 37.6932C81.5834 37.1629 81.8978 36.4583 81.8978 35.5795C81.8978 34.9356 81.7425 34.3674 81.4319 33.875C81.1213 33.3826 80.6781 32.9962 80.1023 32.7159C79.5342 32.4356 78.8561 32.2955 78.0682 32.2955H73.9432V38.4773ZM73.9432 28.9659H77.591C78.2652 28.9659 78.8637 28.8485 79.3864 28.6136C79.9167 28.3712 80.3334 28.0303 80.6364 27.5909C80.947 27.1515 81.1023 26.625 81.1023 26.0114C81.1023 25.1705 80.8031 24.4924 80.2046 23.9773C79.6137 23.4621 78.7728 23.2045 77.6819 23.2045H73.9432V28.9659ZM97.9745 42.8409C96.2093 42.8409 94.6828 42.4659 93.3949 41.7159C92.1146 40.9583 91.126 39.9053 90.429 38.5568C89.7321 37.2008 89.3836 35.6288 89.3836 33.8409C89.3836 32.0379 89.7321 30.4621 90.429 29.1136C91.126 27.7576 92.1146 26.7045 93.3949 25.9545C94.6828 25.197 96.2093 24.8182 97.9745 24.8182C99.7396 24.8182 101.262 25.197 102.543 25.9545C103.831 26.7045 104.823 27.7576 105.52 29.1136C106.217 30.4621 106.565 32.0379 106.565 33.8409C106.565 35.6288 106.217 37.2008 105.52 38.5568C104.823 39.9053 103.831 40.9583 102.543 41.7159C101.262 42.4659 99.7396 42.8409 97.9745 42.8409ZM97.9972 39.0909C98.8003 39.0909 99.4707 38.8636 100.009 38.4091C100.546 37.947 100.952 37.3182 101.224 36.5227C101.505 35.7273 101.645 34.822 101.645 33.8068C101.645 32.7917 101.505 31.8864 101.224 31.0909C100.952 30.2955 100.546 29.6667 100.009 29.2045C99.4707 28.7424 98.8003 28.5114 97.9972 28.5114C97.1866 28.5114 96.5048 28.7424 95.9518 29.2045C95.4063 29.6667 94.9934 30.2955 94.7131 31.0909C94.4404 31.8864 94.304 32.7917 94.304 33.8068C94.304 34.822 94.4404 35.7273 94.7131 36.5227C94.9934 37.3182 95.4063 37.947 95.9518 38.4091C96.5048 38.8636 97.1866 39.0909 97.9972 39.0909ZM117.599 42.8409C115.834 42.8409 114.308 42.4659 113.02 41.7159C111.74 40.9583 110.751 39.9053 110.054 38.5568C109.357 37.2008 109.009 35.6288 109.009 33.8409C109.009 32.0379 109.357 30.4621 110.054 29.1136C110.751 27.7576 111.74 26.7045 113.02 25.9545C114.308 25.197 115.834 24.8182 117.599 24.8182C119.365 24.8182 120.887 25.197 122.168 25.9545C123.456 26.7045 124.448 27.7576 125.145 29.1136C125.842 30.4621 126.19 32.0379 126.19 33.8409C126.19 35.6288 125.842 37.2008 125.145 38.5568C124.448 39.9053 123.456 40.9583 122.168 41.7159C120.887 42.4659 119.365 42.8409 117.599 42.8409ZM117.622 39.0909C118.425 39.0909 119.096 38.8636 119.634 38.4091C120.171 37.947 120.577 37.3182 120.849 36.5227C121.13 35.7273 121.27 34.822 121.27 33.8068C121.27 32.7917 121.13 31.8864 120.849 31.0909C120.577 30.2955 120.171 29.6667 119.634 29.2045C119.096 28.7424 118.425 28.5114 117.622 28.5114C116.812 28.5114 116.13 28.7424 115.577 29.2045C115.031 29.6667 114.618 30.2955 114.338 31.0909C114.065 31.8864 113.929 32.7917 113.929 33.8068C113.929 34.822 114.065 35.7273 114.338 36.5227C114.618 37.3182 115.031 37.947 115.577 38.4091C116.13 38.8636 116.812 39.0909 117.622 39.0909ZM129.338 42.5V25.0455H133.952V28.125H134.156C134.52 27.1023 135.126 26.2955 135.974 25.7045C136.823 25.1136 137.838 24.8182 139.02 24.8182C140.217 24.8182 141.236 25.1174 142.077 25.7159C142.918 26.3068 143.478 27.1098 143.759 28.125H143.94C144.296 27.125 144.94 26.3258 145.872 25.7273C146.812 25.1212 147.921 24.8182 149.202 24.8182C150.831 24.8182 152.153 25.3371 153.168 26.375C154.19 27.4053 154.702 28.8674 154.702 30.7614V42.5H149.872V31.7159C149.872 30.7462 149.615 30.0189 149.099 29.5341C148.584 29.0492 147.94 28.8068 147.168 28.8068C146.289 28.8068 145.603 29.0871 145.111 29.6477C144.618 30.2008 144.372 30.9318 144.372 31.8409V42.5H139.679V31.6136C139.679 30.7576 139.433 30.0758 138.94 29.5682C138.456 29.0606 137.815 28.8068 137.02 28.8068C136.482 28.8068 135.997 28.9432 135.565 29.2159C135.141 29.4811 134.804 29.8561 134.554 30.3409C134.304 30.8182 134.179 31.3788 134.179 32.0227V42.5H129.338ZM166.023 42.5V19.2273H175.341C177.053 19.2273 178.481 19.4811 179.625 19.9886C180.769 20.4962 181.629 21.2008 182.205 22.1023C182.78 22.9962 183.068 24.0265 183.068 25.1932C183.068 26.1023 182.886 26.9015 182.523 27.5909C182.159 28.2727 181.659 28.8333 181.023 29.2727C180.394 29.7045 179.674 30.0114 178.864 30.1932V30.4205C179.75 30.4583 180.58 30.7083 181.352 31.1705C182.133 31.6326 182.765 32.2803 183.25 33.1136C183.735 33.9394 183.977 34.9242 183.977 36.0682C183.977 37.303 183.671 38.4053 183.057 39.375C182.451 40.3371 181.553 41.0985 180.364 41.6591C179.174 42.2197 177.708 42.5 175.966 42.5H166.023ZM170.943 38.4773H174.955C176.326 38.4773 177.326 38.2159 177.955 37.6932C178.583 37.1629 178.898 36.4583 178.898 35.5795C178.898 34.9356 178.742 34.3674 178.432 33.875C178.121 33.3826 177.678 32.9962 177.102 32.7159C176.534 32.4356 175.856 32.2955 175.068 32.2955H170.943V38.4773ZM170.943 28.9659H174.591C175.265 28.9659 175.864 28.8485 176.386 28.6136C176.917 28.3712 177.333 28.0303 177.636 27.5909C177.947 27.1515 178.102 26.625 178.102 26.0114C178.102 25.1705 177.803 24.4924 177.205 23.9773C176.614 23.4621 175.773 23.2045 174.682 23.2045H170.943V28.9659ZM195.043 42.8409C193.247 42.8409 191.702 42.4773 190.406 41.75C189.118 41.0152 188.126 39.9773 187.429 38.6364C186.732 37.2879 186.384 35.6932 186.384 33.8523C186.384 32.0568 186.732 30.4811 187.429 29.125C188.126 27.7689 189.107 26.7121 190.372 25.9545C191.645 25.197 193.137 24.8182 194.849 24.8182C196.001 24.8182 197.073 25.0038 198.065 25.375C199.065 25.7386 199.937 26.2879 200.679 27.0227C201.429 27.7576 202.012 28.6818 202.429 29.7955C202.846 30.9015 203.054 32.197 203.054 33.6818V35.0114H188.315V32.0114H198.497C198.497 31.3144 198.346 30.697 198.043 30.1591C197.74 29.6212 197.319 29.2008 196.781 28.8977C196.251 28.5871 195.634 28.4318 194.929 28.4318C194.194 28.4318 193.543 28.6023 192.974 28.9432C192.414 29.2765 191.974 29.7273 191.656 30.2955C191.338 30.8561 191.175 31.4811 191.168 32.1705V35.0227C191.168 35.8864 191.327 36.6326 191.645 37.2614C191.971 37.8902 192.429 38.375 193.02 38.7159C193.611 39.0568 194.312 39.2273 195.122 39.2273C195.66 39.2273 196.153 39.1515 196.599 39C197.046 38.8485 197.429 38.6212 197.747 38.3182C198.065 38.0152 198.308 37.6439 198.474 37.2045L202.952 37.5C202.724 38.5758 202.259 39.5152 201.554 40.3182C200.857 41.1136 199.956 41.7348 198.849 42.1818C197.751 42.6212 196.482 42.8409 195.043 42.8409ZM215.497 25.0455V28.6818H204.986V25.0455H215.497ZM207.372 20.8636H212.213V37.1364C212.213 37.5833 212.281 37.9318 212.418 38.1818C212.554 38.4242 212.743 38.5947 212.986 38.6932C213.236 38.7917 213.524 38.8409 213.849 38.8409C214.077 38.8409 214.304 38.822 214.531 38.7841C214.759 38.7386 214.933 38.7045 215.054 38.6818L215.815 42.2841C215.573 42.3598 215.232 42.447 214.793 42.5455C214.353 42.6515 213.819 42.7159 213.19 42.7386C212.024 42.7841 211.001 42.6288 210.122 42.2727C209.251 41.9167 208.573 41.3636 208.088 40.6136C207.603 39.8636 207.365 38.9167 207.372 37.7727V20.8636ZM232.955 30.0227L228.523 30.2955C228.447 29.9167 228.284 29.5758 228.034 29.2727C227.784 28.9621 227.455 28.7159 227.046 28.5341C226.644 28.3447 226.163 28.25 225.602 28.25C224.852 28.25 224.22 28.4091 223.705 28.7273C223.189 29.0379 222.932 29.4545 222.932 29.9773C222.932 30.3939 223.099 30.7462 223.432 31.0341C223.765 31.322 224.337 31.553 225.148 31.7273L228.307 32.3636C230.004 32.7121 231.269 33.2727 232.102 34.0455C232.936 34.8182 233.352 35.8333 233.352 37.0909C233.352 38.2348 233.015 39.2386 232.341 40.1023C231.674 40.9659 230.758 41.6402 229.591 42.125C228.432 42.6023 227.095 42.8409 225.58 42.8409C223.269 42.8409 221.428 42.3598 220.057 41.3977C218.693 40.428 217.894 39.1098 217.659 37.4432L222.421 37.1932C222.564 37.8977 222.913 38.4356 223.466 38.8068C224.019 39.1705 224.727 39.3523 225.591 39.3523C226.439 39.3523 227.121 39.1894 227.636 38.8636C228.159 38.5303 228.424 38.1023 228.432 37.5795C228.424 37.1402 228.239 36.7803 227.875 36.5C227.511 36.2121 226.951 35.9924 226.193 35.8409L223.171 35.2386C221.466 34.8977 220.197 34.3068 219.364 33.4659C218.538 32.625 218.125 31.553 218.125 30.25C218.125 29.1288 218.428 28.1629 219.034 27.3523C219.648 26.5417 220.508 25.9167 221.614 25.4773C222.727 25.0379 224.03 24.8182 225.523 24.8182C227.727 24.8182 229.462 25.2841 230.727 26.2159C232 27.1477 232.742 28.4167 232.955 30.0227Z" fill="white"/>
<ellipse cx="31.0001" cy="31.5" rx="17" ry="16" fill="#F9E638"/>
<circle cx="31.5001" cy="33" r="8.5" fill="#03172F"/>
<circle cx="4.50006" cy="22" r="4.5" fill="#D9D9D9"/>
<path d="M39.5001 12.5C41.8428 13.4342 42.4745 14.6644 42.5001 18L14.0001 28C12.2594 27.004 11.8797 26.0733 12.0001 24V18.5L15.0001 10.5C12.8976 15.1008 11.282 16.9295 8.00009 19.5C6.51346 19.0431 6.07366 18.6064 6.00009 17.5C7.69675 11.9101 9.34613 8.75903 12.5001 3.5C13.6743 1.08483 14.9294 0.371263 18.0001 0C26.715 1.27909 31.6835 4.66914 39.5001 12.5Z" fill="#FF0000"/>
<path d="M14 28C12.897 27.825 11.4656 25.6423 12 24C12.5344 22.3578 39.5 12.5 39.5 12.5C40.6125 11.7107 44.7143 17.0972 42.5 18C40.2857 18.9028 15.103 28.1751 14 28Z" fill="#D9D9D9"/>
</svg>
