<svg width="91" height="76" viewBox="0 0 91 76" fill="none" xmlns="http://www.w3.org/2000/svg">
<g clip-path="url(#clip0_32_45)">
<path d="M28.0109 0.0709C26.5748 0.134712 25.9137 0.255234 24.9184 0.645157C23.2263 1.30448 21.6765 2.57352 20.2759 4.43098C19.5508 5.39516 18.8327 6.60038 18.5555 7.30225C17.1691 10.9037 19.3944 14.172 25.2027 17.0504C28.0678 18.4683 31.7007 19.7373 36.2223 20.9071L37.8574 21.3325H26.1127L14.3752 21.3396L11.5385 22.5235L8.70898 23.7146L23.923 23.75C32.2908 23.7713 39.0873 23.8067 39.0305 23.828C38.284 24.1541 28.9067 27.791 28.8285 27.791C28.7361 27.791 28.7219 30.641 28.7219 51.8955V76H33.5563H38.3906V51.9097L38.3977 27.8265L39.6205 27.3515C40.2959 27.0892 42.642 26.1746 44.8388 25.3097L48.8343 23.75H62.8042H76.7812V47.8261V71.9022L76.9448 71.8597C77.0301 71.8384 78.0609 71.4272 79.234 70.9381L81.3668 70.0519V45.7134V21.375L69.2453 21.3396C57.1878 21.3041 57.1238 21.3041 57.6215 21.1694C59.6192 20.6306 62.1502 19.4396 64.2332 18.0571C65.7759 17.0362 67.4822 15.4694 68.442 14.1933C69.4515 12.8605 70.0913 11.5418 70.461 10.0672C70.6032 9.50001 70.6245 9.21642 70.6245 8.22388C70.6245 7.22426 70.6032 6.96194 70.461 6.4515C70.1198 5.18956 69.4941 4.12613 68.5699 3.22575C67.3116 2.01344 65.6764 1.26904 63.4867 0.907471C62.6763 0.772766 60.4155 0.801125 59.3988 0.950005C58.0338 1.14851 57.4011 1.32575 56.5338 1.73695C53.171 3.34628 50.5903 5.96941 48.6637 9.74814C47.2276 12.5556 46.1541 16.2351 45.7488 19.7444C45.5711 21.3041 45.5711 21.3041 45.3294 21.3041H45.1161L43.8933 16.4478C42.578 11.2157 42.4359 10.691 42.0022 9.39366C40.687 5.48023 39.3006 3.60859 36.1441 1.47463C34.8359 0.581352 33.9117 0.21978 32.5965 0.0709C31.8998 -0.00708008 29.9589 -0.00708008 28.0109 0.0709ZM25.5724 2.32538C27.6128 3.01307 29.9305 4.66493 32.9448 7.58583C36.0303 10.5776 39.8907 15.1362 43.552 20.0989C43.9857 20.6802 44.3625 21.2049 44.3909 21.2474C44.4336 21.3183 44.2345 21.3396 43.4952 21.3396H42.5496L40.6656 20.3399C34.9852 17.3198 30.6272 14.6612 27.3355 12.194C25.6293 10.9179 24.8473 10.2515 23.7098 9.11008C21.9466 7.35188 21.1148 5.91978 21.1148 4.6862C21.122 3.57314 21.904 2.5806 23.077 2.19068C23.7098 1.98508 24.7051 2.0418 25.5724 2.32538ZM67.2263 2.91381C67.7452 3.10523 68.2073 3.55896 68.3211 3.97725C68.5059 4.65784 68.1647 5.60075 67.3258 6.73508C66.7713 7.48657 64.6029 9.64889 63.4014 10.6414C60.8207 12.7825 57.7281 15.0228 53.8109 17.6034L52.1473 18.7022L49.6234 19.6948C48.2371 20.2407 47.0925 20.6731 47.0783 20.666C47.0498 20.6448 48.8698 18.2556 49.8225 17.0504C56.2209 9.00374 61.5174 4.04105 64.8375 2.9918C65.4845 2.7862 65.5129 2.77911 66.2025 2.77202C66.6788 2.76493 66.9205 2.80038 67.2263 2.91381Z" fill="#BDDEFF"/>
<path d="M39.5708 18.0712C39.6916 18.1847 40.5945 18.6597 40.5945 18.61C40.5945 18.5817 40.495 18.4328 40.3741 18.2839C40.1751 18.0358 40.1253 18.0074 39.8267 18.0074C39.6348 18.0074 39.5281 18.0358 39.5708 18.0712Z" fill="white"/>
<path d="M21.5059 18.9859L19.0887 19.9572L21.3779 19.9784C25.0179 20.0068 28.2811 19.9642 28.1176 19.8933C28.0394 19.8579 27.5915 19.6736 27.1223 19.4751C26.6531 19.2836 25.7431 18.8725 25.1032 18.5676C24.4634 18.2557 23.9373 18.0075 23.9302 18.0146C23.9231 18.0217 22.8353 18.4542 21.5059 18.9859Z" fill="#002D65"/>
<path d="M66.2949 18.369C65.9537 18.6526 64.8517 19.4183 64.0839 19.9004C63.9773 19.9642 65.3849 19.9854 70.4539 20.0067C77.1936 20.028 77.2647 20.028 79.7316 19.9854C81.3881 19.9571 81.6512 19.9996 82.3834 20.4179L82.7531 20.6306V44.7989C82.7531 58.0847 82.7745 68.9742 82.7958 68.9955C82.8171 69.0168 84.6727 68.3007 86.9192 67.4004L91 65.7556V41.8851V18.0075L78.8643 18.0145H66.7215L66.2949 18.369Z" fill="#002D65"/>
<path d="M3.16367 26.2951L0.0355469 27.5571L0.0142188 51.4205L0 75.291H13.6145H27.2218L27.2431 54.1783C27.2573 42.5727 27.236 32.3071 27.2005 31.3712C27.1436 29.6556 27.2005 28.3369 27.3782 27.5003C27.5346 26.7772 28.1673 26.366 29.8665 25.8768C30.8902 25.5791 31.5656 25.3309 31.5656 25.2459C31.5656 25.2246 27.428 25.2104 22.3803 25.2246C14.4249 25.2459 8.46016 25.1821 6.71836 25.0615C6.30602 25.0332 6.20648 25.0686 3.16367 26.2951Z" fill="#002D65"/>
<path d="M49.3177 25.3523C47.8532 25.6642 46.2607 26.2243 43.4738 27.4012C42.578 27.7769 41.3694 28.2661 40.7936 28.4859L39.7414 28.8829V52.087V75.2911L53.4127 75.3053L67.0769 75.3265L71.1791 73.6959L75.2883 72.0653V48.6486V25.2389L62.5483 25.2459C51.6283 25.253 49.7301 25.2672 49.3177 25.3523Z" fill="#002D65"/>
</g>
<defs>
<clipPath id="clip0_32_45">
<rect width="91" height="76" fill="white"/>
</clipPath>
</defs>
</svg>
