<svg width="444" height="444" viewBox="0 0 444 444" fill="none" xmlns="http://www.w3.org/2000/svg">
<path d="M364.677 207.828C362.84 189.068 357.325 170.853 348.449 154.223C339.572 137.594 327.507 122.875 312.942 110.909L221.817 221.818L364.677 207.828Z" fill="#F9E638"/>
<path d="M130.693 332.726C145.257 344.693 162.037 353.674 180.072 359.156C198.108 364.638 217.046 366.514 235.807 364.677L221.817 221.818L130.693 332.726Z" fill="#03172F"/>
<path d="M110.909 130.693C98.9421 145.258 89.9613 162.037 84.4792 180.072C78.9972 198.108 77.1211 217.046 78.9582 235.807L221.818 221.818L110.909 130.693Z" fill="#03172F"/>
<path d="M78.9584 235.807C80.7956 254.568 86.3098 272.783 95.1865 289.412C104.063 306.041 116.128 320.76 130.693 332.726L221.818 221.818L78.9584 235.807Z" fill="#F9E638"/>
<path d="M207.828 78.9582C189.068 80.7954 170.853 86.3096 154.223 95.1863C137.594 104.063 122.876 116.128 110.909 130.693L221.818 221.818L207.828 78.9582Z" fill="#F9E638"/>
<path d="M235.807 364.677C254.567 362.84 272.782 357.326 289.412 348.449C306.041 339.572 320.76 327.507 332.726 312.942L221.818 221.818L235.807 364.677Z" fill="#F9E638"/>
<path d="M312.942 110.909C298.378 98.9421 281.598 89.9613 263.563 84.4793C245.527 78.9972 226.589 77.1211 207.828 78.9582L221.818 221.818L312.942 110.909Z" fill="#03172F"/>
<path d="M332.726 312.942C344.693 298.378 353.674 281.599 359.156 263.563C364.638 245.527 366.514 226.589 364.677 207.828L221.818 221.818L332.726 312.942Z" fill="#03172F"/>
</svg>
