<svg width="289" height="289" viewBox="0 0 289 289" fill="none" xmlns="http://www.w3.org/2000/svg">
<path d="M49.5977 36.3711C26.775 56.3215 10.8539 82.9849 4.11648 112.54L144.069 144.444L49.5977 36.3711Z" fill="black"/>
<path d="M127.948 1.80938C97.8264 5.21377 69.5559 18.0666 47.1882 38.5258L144.069 144.444L127.948 1.80938Z" fill="#FFD700"/>
<path d="M214.448 19.3387C188.028 4.47608 157.582 -1.64113 127.472 1.86381L144.069 144.444L214.448 19.3387Z" fill="black"/>
<path d="M239.58 251.599C262.208 231.429 277.871 204.613 284.323 174.994L144.069 144.444L239.58 251.599Z" fill="#FFD700"/>
<path d="M71.3331 268.193C97.4665 283.554 127.792 290.246 157.963 287.312L144.069 144.444L71.3331 268.193Z" fill="#FFD700"/>
<path d="M158.371 287.272C188.533 284.252 216.965 271.76 239.592 251.588L144.069 144.444L158.371 287.272Z" fill="black"/>
<path d="M12.5406 201.931C24.6807 229.707 45.3026 252.927 71.4505 268.262L144.069 144.444L12.5406 201.931Z" fill="black"/>
<path d="M284.337 174.929C290.775 145.307 287.67 114.408 275.467 86.6592L144.069 144.444L284.337 174.929Z" fill="black"/>
<path d="M4.23771 112.013C-2.61111 141.542 0.0642758 172.482 11.8804 200.397L144.069 144.444L4.23771 112.013Z" fill="#FFD700"/>
<path d="M275.104 84.8985C262.146 57.4944 240.846 34.8959 214.255 20.3419L145.337 146.258L275.104 84.8985Z" fill="#FFD700"/>
<path d="M188.831 93.4226L196.849 98.0904L196.929 98.0179L193.086 89.5719L195.108 87.7418L199.942 99.0612L197.591 101.189L186.805 95.2564L188.831 93.4226Z" fill="black"/>
<path d="M204.295 95.1219L202.34 96.8909L197.51 85.5677L199.861 83.4403L210.644 89.3763L208.689 91.1453L200.504 86.4451L200.436 86.5061L204.295 95.1219ZM201.104 91.8412L205.721 87.6626L207.009 89.0865L202.392 93.2651L201.104 91.8412Z" fill="black"/>
<path d="M211.589 88.5204L210.609 87.4377L209.448 77.5002L205.134 81.4042L203.773 79.9003L210.378 73.9222L211.358 75.0048L212.516 84.9462L216.834 81.0383L218.195 82.5422L211.589 88.5204Z" fill="black"/>
<path d="M213.611 70.997L221.419 79.6247L219.595 81.2755L211.786 72.6478L213.611 70.997Z" fill="black"/>
<path d="M226.944 66.7773C227.795 67.7181 228.341 68.68 228.582 69.6628C228.825 70.643 228.799 71.5843 228.501 72.4867C228.205 73.3837 227.676 74.1766 226.915 74.8654C226.148 75.5593 225.302 76.0079 224.378 76.2112C223.453 76.4145 222.515 76.3462 221.564 76.0065C220.613 75.6668 219.713 75.0279 218.864 74.0898C218.012 73.149 217.465 72.1884 217.221 71.2082C216.978 70.2279 217.005 69.2893 217.301 68.3923C217.596 67.4925 218.126 66.6956 218.893 66.0017C219.654 65.3129 220.497 64.8669 221.421 64.6636C222.346 64.4549 223.284 64.5205 224.236 64.8602C225.19 65.1974 226.092 65.8365 226.944 66.7773ZM225.094 68.451C224.543 67.8416 223.986 67.4102 223.425 67.157C222.867 66.9012 222.325 66.8138 221.801 66.895C221.277 66.9761 220.794 67.2162 220.353 67.6152C219.912 68.0143 219.625 68.4706 219.492 68.9843C219.36 69.4979 219.391 70.0466 219.587 70.6302C219.786 71.2114 220.162 71.8067 220.713 72.4161C221.265 73.0256 221.82 73.4582 222.378 73.714C222.939 73.9672 223.482 74.0533 224.007 73.9722C224.531 73.891 225.013 73.6509 225.454 73.2519C225.895 72.8528 226.182 72.3965 226.315 71.8829C226.448 71.3692 226.415 70.8218 226.216 70.2407C226.02 69.657 225.646 69.0605 225.094 68.451Z" fill="black"/>
<path d="M79.5984 109.902L81.2068 100.765L81.1112 100.715L74.5142 107.241L72.098 105.976L81.0485 97.5268L83.8573 98.9971L82.0197 111.169L79.5984 109.902Z" fill="white"/>
<path d="M75.8472 94.8041L78.1829 96.0268L69.2274 104.473L66.4186 103.003L68.2612 90.8331L70.5969 92.0558L69.0159 101.361L69.0965 101.403L75.8472 94.8041ZM73.872 98.9328L68.3549 96.0448L69.2455 94.3433L74.7626 97.2313L73.872 98.9328Z" fill="white"/>
<path d="M67.1311 90.2416L66.4539 91.5353L57.5307 96.0608L62.6853 98.7591L61.7446 100.556L53.8516 96.4244L54.5288 95.1307L63.457 90.6078L58.2973 87.9069L59.238 86.1098L67.1311 90.2416Z" fill="white"/>
<path d="M49.9893 94.4027L55.3859 84.0934L57.5656 85.2343L52.169 95.5436L49.9893 94.4027Z" fill="white"/>
<path d="M41.4206 83.3501C42.0091 82.2259 42.7229 81.381 43.5619 80.8155C44.3975 80.2482 45.2901 79.948 46.2395 79.9148C47.1838 79.8832 48.1107 80.1055 49.0201 80.5815C49.9363 81.0611 50.6496 81.6996 51.16 82.4969C51.6704 83.2942 51.9306 84.1979 51.9406 85.2079C51.9506 86.2178 51.6623 87.2833 51.0755 88.4041C50.487 89.5284 49.775 90.3741 48.9393 90.9414C48.1036 91.5087 47.2136 91.8081 46.2693 91.8397C45.3233 91.8746 44.3922 91.6523 43.476 91.1727C42.5666 90.6967 41.8566 90.06 41.3462 89.2626C40.8307 88.4669 40.568 87.5641 40.5579 86.5541C40.5446 85.5423 40.8321 84.4744 41.4206 83.3501ZM43.6305 84.5069C43.2493 85.2351 43.0369 85.9064 42.9932 86.5206C42.9463 87.133 43.0515 87.6712 43.3089 88.1352C43.5662 88.5991 43.9584 88.969 44.4852 89.2448C45.0121 89.5206 45.5395 89.632 46.0674 89.5792C46.5953 89.5263 47.0992 89.3069 47.5791 88.9211C48.0556 88.5335 48.4845 87.9756 48.8657 87.2474C49.2469 86.5191 49.461 85.8488 49.5079 85.2363C49.5515 84.6221 49.4447 84.083 49.1873 83.6191C48.9299 83.1552 48.5378 82.7853 48.0109 82.5095C47.484 82.2337 46.9566 82.1222 46.4287 82.1751C45.9008 82.228 45.3986 82.4482 44.9221 82.8358C44.4422 83.2217 44.0117 83.7787 43.6305 84.5069Z" fill="white"/>
<path d="M136.987 215.408L127.71 215.374L127.677 215.477L135.228 220.87L134.391 223.466L124.545 216.08L125.517 213.063L137.825 212.807L136.987 215.408Z" fill="black"/>
<path d="M122.745 221.668L123.554 219.159L133.398 226.55L132.426 229.568L120.12 229.818L120.928 227.309L130.367 227.287L130.395 227.201L122.745 221.668ZM127.15 222.914L125.24 228.841L123.412 228.252L125.322 222.325L127.15 222.914Z" fill="black"/>
<path d="M119.729 231.033L121.119 231.48L127.094 239.505L128.878 233.968L130.808 234.589L128.077 243.069L126.687 242.622L120.714 234.591L118.928 240.134L116.997 239.513L119.729 231.033Z" fill="black"/>
<path d="M126.74 247.219L115.664 243.651L116.419 241.309L127.495 244.877L126.74 247.219Z" fill="black"/>
<path d="M117.303 257.54C116.095 257.151 115.142 256.591 114.442 255.86C113.741 255.133 113.293 254.304 113.1 253.374C112.908 252.449 112.97 251.498 113.284 250.521C113.601 249.536 114.11 248.725 114.809 248.087C115.508 247.448 116.354 247.039 117.348 246.857C118.341 246.676 119.44 246.779 120.644 247.167C121.852 247.556 122.807 248.114 123.508 248.841C124.209 249.569 124.655 250.395 124.846 251.32C125.041 252.246 124.98 253.202 124.663 254.186C124.348 255.163 123.842 255.971 123.142 256.609C122.446 257.252 121.601 257.665 120.607 257.846C119.612 258.031 118.511 257.929 117.303 257.54ZM118.068 255.166C118.85 255.418 119.548 255.513 120.161 255.452C120.772 255.394 121.285 255.199 121.698 254.867C122.112 254.534 122.41 254.085 122.592 253.519C122.774 252.953 122.795 252.414 122.653 251.903C122.511 251.392 122.209 250.932 121.748 250.525C121.285 250.121 120.662 249.793 119.88 249.541C119.097 249.289 118.4 249.192 117.789 249.25C117.176 249.311 116.663 249.508 116.25 249.84C115.836 250.173 115.538 250.622 115.356 251.188C115.173 251.754 115.153 252.293 115.295 252.804C115.437 253.315 115.739 253.773 116.202 254.177C116.664 254.584 117.286 254.914 118.068 255.166Z" fill="black"/>
<path d="M193.506 181.116L199.425 171.951L203.04 174.286C203.732 174.733 204.243 175.239 204.572 175.802C204.907 176.365 205.057 176.954 205.022 177.57C204.993 178.185 204.782 178.795 204.391 179.401C203.998 180.01 203.529 180.448 202.983 180.717C202.44 180.983 201.843 181.072 201.195 180.983C200.549 180.896 199.875 180.625 199.171 180.17L196.75 178.607L197.756 177.05L199.863 178.411C200.233 178.65 200.573 178.797 200.883 178.854C201.193 178.91 201.474 178.876 201.724 178.75C201.977 178.626 202.201 178.414 202.396 178.112C202.592 177.808 202.697 177.512 202.709 177.224C202.725 176.938 202.643 176.662 202.465 176.394C202.292 176.126 202.019 175.871 201.646 175.631L200.339 174.787L195.444 182.367L193.506 181.116ZM201.149 180.141L200.733 185.783L198.594 184.401L199.059 178.792L201.149 180.141Z" fill="black"/>
<path d="M201.776 186.456L207.694 177.292L213.869 181.28L212.837 182.877L208.6 180.141L207.19 182.324L211.109 184.856L210.078 186.453L206.158 183.922L204.745 186.11L209 188.858L207.969 190.455L201.776 186.456Z" fill="black"/>
<path d="M209.491 191.439L215.409 182.274L219.025 184.609C219.72 185.058 220.226 185.573 220.544 186.155C220.864 186.733 221.001 187.34 220.955 187.974C220.914 188.607 220.697 189.227 220.304 189.836C219.911 190.445 219.433 190.897 218.87 191.193C218.307 191.488 217.692 191.605 217.027 191.543C216.364 191.483 215.68 191.225 214.976 190.771L212.672 189.282L213.675 187.73L215.666 189.016C216.039 189.256 216.387 189.391 216.712 189.418C217.041 189.445 217.34 189.382 217.607 189.23C217.88 189.076 218.114 188.848 218.308 188.547C218.505 188.243 218.615 187.938 218.639 187.632C218.668 187.325 218.601 187.03 218.437 186.747C218.275 186.461 218.006 186.196 217.631 185.954L216.324 185.11L211.429 192.69L209.491 191.439Z" fill="black"/>
<path d="M217.65 196.707L223.568 187.543L229.743 191.531L228.711 193.129L224.474 190.392L223.064 192.576L226.983 195.107L225.952 196.705L222.032 194.173L220.619 196.361L224.874 199.109L223.843 200.707L217.65 196.707Z" fill="black"/>
<path d="M229.903 193.898L230.934 192.301L238.461 197.161L237.429 198.759L234.624 196.947L229.737 204.513L227.822 203.277L232.708 195.71L229.903 193.898Z" fill="black"/>
<path d="M241.638 199.213L235.72 208.377L233.782 207.126L239.7 197.962L241.638 199.213Z" fill="black"/>
<path d="M237.314 209.407L243.232 200.242L246.848 202.577C247.54 203.024 248.05 203.53 248.38 204.093C248.714 204.656 248.864 205.245 248.829 205.861C248.8 206.476 248.59 207.086 248.199 207.692C247.806 208.301 247.336 208.739 246.791 209.008C246.247 209.274 245.651 209.363 245.002 209.274C244.357 209.187 243.682 208.916 242.978 208.461L240.557 206.898L241.563 205.341L243.67 206.702C244.04 206.941 244.38 207.088 244.69 207.145C245.001 207.201 245.281 207.167 245.531 207.041C245.784 206.917 246.008 206.704 246.203 206.403C246.4 206.099 246.504 205.803 246.517 205.515C246.532 205.229 246.451 204.953 246.272 204.685C246.099 204.417 245.826 204.162 245.453 203.922L244.147 203.078L239.251 210.658L237.314 209.407ZM244.956 208.432L244.54 214.074L242.401 212.692L242.866 207.083L244.956 208.432Z" fill="black"/>
<path d="M165.423 74.5831L156.343 71.9509L157.33 68.5456C157.532 67.848 157.823 67.2979 158.202 66.8952C158.583 66.4895 159.027 66.2289 159.534 66.1133C160.04 65.9939 160.582 66.0182 161.162 66.1861C161.744 66.3549 162.214 66.6256 162.57 66.9981C162.925 67.3669 163.149 67.8245 163.244 68.3711C163.336 68.9168 163.281 69.5384 163.078 70.236L162.375 72.6614L161.01 72.2656L161.649 70.0619C161.767 69.654 161.807 69.3037 161.771 69.011C161.731 68.7174 161.619 68.4769 161.437 68.2893C161.252 68.0979 160.998 67.9556 160.676 67.8622C160.354 67.7688 160.06 67.7527 159.796 67.8138C159.529 67.8741 159.298 68.0171 159.104 68.243C158.908 68.468 158.75 68.7859 158.631 69.1968L158.194 70.7043L165.9 72.9381L165.423 74.5831ZM162.668 68.6993L167.435 67.644L166.903 69.4796L162.148 70.495L162.668 68.6993Z" fill="white"/>
<path d="M167.777 66.4623L158.696 63.8301L160.408 57.9241L161.787 58.3238L160.552 62.5848L163.018 63.2994L164.164 59.3443L165.543 59.744L164.397 63.6991L166.875 64.4176L168.121 60.1211L169.499 60.5208L167.777 66.4623Z" fill="white"/>
<path d="M169.976 58.878L160.895 56.2458L161.882 52.8405C162.084 52.1429 162.384 51.5953 162.781 51.1978C163.179 50.7973 163.641 50.5418 164.166 50.4314C164.69 50.3171 165.24 50.3435 165.816 50.5106C166.398 50.6794 166.88 50.952 167.261 51.3285C167.643 51.7049 167.894 52.1703 168.015 52.7245C168.133 53.278 168.091 53.905 167.888 54.6055L167.234 56.8624L165.881 56.4704L166.471 54.4352C166.59 54.0273 166.616 53.6727 166.549 53.3714C166.483 53.0702 166.343 52.8215 166.131 52.6254C165.919 52.4263 165.653 52.2801 165.33 52.1867C165.008 52.0933 164.706 52.0746 164.424 52.1306C164.142 52.1836 163.896 52.3219 163.683 52.5456C163.469 52.7655 163.302 53.0808 163.183 53.4917L162.746 54.9992L170.452 57.233L169.976 58.878Z" fill="white"/>
<path d="M172.305 50.8426L163.224 48.2104L164.936 42.3043L166.315 42.7041L165.08 46.9651L167.545 47.6797L168.692 43.7246L170.071 44.1243L168.924 48.0794L171.403 48.7979L172.648 44.5014L174.027 44.9011L172.305 50.8426Z" fill="white"/>
<path d="M166.686 41.4249L165.307 41.0251L167.407 33.7801L168.786 34.1798L167.972 36.9865L175.674 39.219L175.201 40.8507L167.499 38.6182L166.686 41.4249Z" fill="white"/>
<path d="M168.289 30.7384L177.369 33.3706L176.893 35.0156L167.812 32.3834L168.289 30.7384Z" fill="white"/>
<path d="M177.886 31.5892L168.805 28.957L169.792 25.5517C169.994 24.8541 170.285 24.304 170.665 23.9013C171.045 23.4956 171.489 23.235 171.997 23.1194C172.502 23.0001 173.045 23.0243 173.624 23.1923C174.207 23.3611 174.676 23.6317 175.033 24.0043C175.387 24.373 175.612 24.8307 175.707 25.3772C175.798 25.9229 175.743 26.5446 175.541 27.2422L174.838 29.6675L173.472 29.2717L174.111 27.068C174.229 26.6601 174.27 26.3098 174.233 26.0171C174.193 25.7236 174.082 25.483 173.899 25.2955C173.714 25.1041 173.461 24.9617 173.138 24.8683C172.816 24.7749 172.523 24.7588 172.258 24.8199C171.991 24.8802 171.761 25.0232 171.567 25.2491C171.37 25.4741 171.212 25.792 171.093 26.2029L170.656 27.7105L178.363 29.9442L177.886 31.5892ZM175.131 25.7054L179.897 24.6501L179.365 26.4857L174.61 27.5011L175.131 25.7054Z" fill="white"/>
<path d="M213.732 145.478L210.814 134.213L215.258 133.062C216.109 132.842 216.874 132.806 217.555 132.955C218.238 133.099 218.808 133.407 219.267 133.879C219.729 134.346 220.056 134.952 220.249 135.696C220.442 136.444 220.448 137.13 220.265 137.752C220.081 138.371 219.719 138.903 219.181 139.348C218.646 139.791 217.946 140.125 217.081 140.349L214.105 141.12L213.61 139.206L216.2 138.535C216.655 138.417 217.017 138.257 217.285 138.055C217.553 137.852 217.729 137.607 217.811 137.32C217.896 137.031 217.891 136.702 217.795 136.332C217.699 135.958 217.542 135.662 217.325 135.444C217.112 135.225 216.836 135.089 216.497 135.036C216.161 134.979 215.764 135.009 215.306 135.128L213.7 135.544L216.113 144.861L213.732 145.478ZM218.487 138.776L222.615 143.177L219.985 143.858L215.919 139.441L218.487 138.776Z" fill="white"/>
<path d="M227.979 143.29L224.332 129.21L225.234 128.976L228.881 143.057L227.979 143.29ZM227.929 133.238C227.77 132.805 227.492 132.51 227.094 132.35C226.697 132.191 226.212 132.186 225.64 132.334C225.251 132.434 224.938 132.574 224.698 132.754C224.458 132.929 224.291 133.131 224.198 133.359C224.108 133.586 224.094 133.82 224.157 134.062C224.202 134.266 224.289 134.431 224.42 134.557C224.554 134.683 224.718 134.779 224.912 134.847C225.104 134.91 225.319 134.954 225.556 134.979C225.793 135 226.041 135.006 226.301 134.998L227.375 134.977C227.895 134.96 228.384 134.99 228.843 135.067C229.301 135.144 229.715 135.277 230.085 135.467C230.455 135.657 230.769 135.912 231.028 136.232C231.291 136.552 231.485 136.946 231.61 137.414C231.785 138.104 231.764 138.748 231.547 139.344C231.332 139.935 230.935 140.455 230.354 140.903C229.776 141.346 229.029 141.686 228.112 141.924C227.203 142.159 226.375 142.225 225.628 142.121C224.885 142.016 224.253 141.739 223.734 141.291C223.218 140.838 222.845 140.208 222.617 139.403L224.922 138.806C225.045 139.177 225.235 139.464 225.491 139.668C225.75 139.867 226.058 139.989 226.414 140.033C226.772 140.074 227.157 140.041 227.568 139.934C227.971 139.83 228.306 139.68 228.573 139.486C228.843 139.291 229.033 139.067 229.144 138.816C229.255 138.564 229.275 138.302 229.205 138.031C229.14 137.778 229.009 137.585 228.814 137.451C228.623 137.317 228.369 137.226 228.051 137.179C227.738 137.132 227.363 137.111 226.926 137.119L225.62 137.128C224.61 137.143 223.767 136.976 223.09 136.627C222.412 136.278 221.968 135.687 221.756 134.854C221.576 134.173 221.603 133.53 221.837 132.925C222.076 132.32 222.481 131.79 223.052 131.337C223.623 130.884 224.32 130.551 225.141 130.338C225.977 130.122 226.744 130.076 227.441 130.2C228.142 130.324 228.733 130.596 229.213 131.015C229.694 131.434 230.026 131.978 230.211 132.647L227.929 133.238Z" fill="white"/>
<path d="M241.768 138.381C240.947 138.594 240.179 138.642 239.464 138.526C238.752 138.405 238.146 138.143 237.646 137.74C237.15 137.333 236.811 136.803 236.63 136.149L239.028 135.528C239.114 135.799 239.266 136.018 239.485 136.184C239.707 136.346 239.972 136.447 240.28 136.489C240.588 136.53 240.917 136.506 241.265 136.416C241.628 136.322 241.932 136.175 242.178 135.974C242.423 135.774 242.595 135.539 242.694 135.271C242.793 135.003 242.804 134.72 242.727 134.423C242.649 134.122 242.496 133.879 242.267 133.691C242.042 133.499 241.756 133.378 241.41 133.326C241.068 133.274 240.684 133.303 240.258 133.413L239.208 133.685L238.755 131.936L239.805 131.664C240.165 131.571 240.466 131.427 240.709 131.231C240.955 131.034 241.127 130.805 241.224 130.546C241.32 130.282 241.329 130.002 241.252 129.705C241.179 129.422 241.047 129.192 240.857 129.015C240.669 128.833 240.438 128.712 240.164 128.654C239.895 128.595 239.6 128.606 239.281 128.689C238.959 128.773 238.679 128.908 238.441 129.094C238.203 129.277 238.031 129.496 237.925 129.751C237.818 130.005 237.797 130.277 237.86 130.566L235.577 131.157C235.42 130.505 235.457 129.885 235.688 129.297C235.919 128.709 236.303 128.197 236.84 127.76C237.379 127.319 238.034 126.999 238.804 126.8C239.581 126.598 240.298 126.563 240.954 126.695C241.61 126.826 242.162 127.09 242.609 127.487C243.059 127.879 243.359 128.373 243.509 128.968C243.676 129.597 243.616 130.174 243.329 130.699C243.046 131.222 242.604 131.622 242.003 131.899L242.026 131.987C242.882 131.879 243.587 132.003 244.141 132.361C244.698 132.713 245.066 133.24 245.243 133.942C245.413 134.582 245.376 135.201 245.131 135.796C244.89 136.391 244.48 136.916 243.901 137.371C243.323 137.826 242.611 138.162 241.768 138.381Z" fill="white"/>
<path d="M252.255 135.764C251.308 136.006 250.434 135.984 249.632 135.698C248.834 135.412 248.138 134.878 247.545 134.097C246.955 133.314 246.502 132.307 246.187 131.074C245.868 129.845 245.779 128.751 245.918 127.792C246.06 126.832 246.412 126.038 246.974 125.411C247.538 124.78 248.291 124.342 249.234 124.098C250.176 123.854 251.045 123.872 251.842 124.151C252.641 124.429 253.337 124.953 253.928 125.723C254.517 126.49 254.97 127.488 255.284 128.718C255.604 129.953 255.694 131.057 255.555 132.028C255.419 132.999 255.071 133.803 254.512 134.44C253.954 135.078 253.201 135.519 252.255 135.764ZM251.744 133.79C252.389 133.623 252.82 133.165 253.037 132.416C253.254 131.667 253.193 130.644 252.853 129.347C252.632 128.493 252.359 127.804 252.036 127.281C251.717 126.758 251.36 126.394 250.967 126.191C250.578 125.986 250.169 125.94 249.739 126.051C249.098 126.217 248.668 126.671 248.449 127.412C248.23 128.154 248.284 129.165 248.612 130.446C248.836 131.311 249.11 132.011 249.432 132.546C249.757 133.076 250.117 133.444 250.511 133.651C250.904 133.855 251.315 133.901 251.744 133.79Z" fill="white"/>
<path d="M262.919 133.003C261.972 133.244 261.098 133.222 260.296 132.937C259.498 132.65 258.802 132.116 258.208 131.335C257.618 130.553 257.166 129.545 256.85 128.312C256.532 127.083 256.442 125.99 256.581 125.03C256.724 124.07 257.076 123.276 257.638 122.65C258.202 122.018 258.955 121.58 259.898 121.336C260.84 121.092 261.709 121.11 262.505 121.389C263.305 121.667 264 122.191 264.591 122.961C265.181 123.728 265.633 124.726 265.948 125.956C266.268 127.191 266.358 128.295 266.218 129.266C266.082 130.237 265.735 131.041 265.176 131.678C264.618 132.316 263.865 132.758 262.919 133.003ZM262.408 131.028C263.053 130.861 263.484 130.403 263.701 129.654C263.918 128.905 263.857 127.882 263.517 126.585C263.295 125.731 263.023 125.042 262.7 124.519C262.38 123.996 262.024 123.632 261.631 123.429C261.242 123.224 260.832 123.178 260.403 123.289C259.762 123.455 259.331 123.909 259.112 124.65C258.894 125.392 258.948 126.403 259.276 127.684C259.5 128.549 259.773 129.249 260.096 129.784C260.421 130.314 260.78 130.682 261.174 130.89C261.568 131.093 261.979 131.139 262.408 131.028Z" fill="white"/>
<path d="M75.212 143.898L76.7027 155.438L72.1496 156.026C71.278 156.139 70.5141 156.079 69.8577 155.847C69.1981 155.619 68.6701 155.242 68.2737 154.717C67.8741 154.195 67.625 153.554 67.5265 152.791C67.4275 152.025 67.5077 151.344 67.7669 150.749C68.0267 150.158 68.4513 149.675 69.0408 149.301C69.6266 148.928 70.3627 148.684 71.2493 148.569L74.2978 148.175L74.5511 150.136L71.8971 150.479C71.4312 150.539 71.0525 150.653 70.761 150.821C70.4694 150.988 70.265 151.209 70.1478 151.484C70.0267 151.759 69.9907 152.087 70.0397 152.466C70.0892 152.849 70.208 153.163 70.396 153.406C70.5802 153.649 70.837 153.818 71.1662 153.913C71.4922 154.013 71.89 154.032 72.3596 153.971L74.005 153.759L72.772 144.213L75.212 143.898ZM69.658 149.955L66.1114 145.073L68.805 144.725L72.2896 149.615L69.658 149.955Z" fill="black"/>
<path d="M60.8029 144.292L62.6662 158.718L61.7421 158.837L59.8787 144.412L60.8029 144.292ZM59.6 154.273C59.7038 154.722 59.9428 155.05 60.3172 155.258C60.6916 155.465 61.1718 155.531 61.7578 155.455C62.156 155.404 62.485 155.304 62.7447 155.156C63.0048 155.012 63.1955 154.832 63.3168 154.618C63.4343 154.404 63.4771 154.173 63.4451 153.925C63.4259 153.718 63.3594 153.543 63.2456 153.401C63.128 153.26 62.9774 153.144 62.7938 153.053C62.6107 152.966 62.403 152.895 62.1706 152.841C61.9388 152.791 61.6934 152.754 61.4344 152.73L60.3656 152.616C59.8476 152.568 59.3661 152.478 58.9211 152.344C58.4761 152.211 58.0819 152.027 57.7384 151.792C57.3949 151.558 57.1147 151.266 56.8976 150.916C56.6767 150.566 56.5334 150.151 56.4675 149.671C56.38 148.964 56.4812 148.328 56.7712 147.764C57.0578 147.203 57.517 146.737 58.1488 146.365C58.7774 145.998 59.5612 145.753 60.5004 145.632C61.4321 145.512 62.2619 145.55 62.99 145.746C63.7144 145.943 64.3062 146.296 64.7654 146.806C65.2214 147.32 65.5124 147.99 65.6384 148.818L63.2773 149.123C63.2011 148.74 63.0485 148.431 62.8197 148.197C62.5876 147.967 62.2978 147.808 61.9502 147.719C61.5993 147.635 61.2135 147.62 60.7928 147.674C60.3796 147.727 60.0286 147.834 59.7398 147.993C59.4473 148.153 59.2303 148.351 59.0889 148.587C58.9475 148.823 58.8948 149.08 58.9307 149.358C58.9642 149.617 59.0694 149.825 59.2462 149.982C59.4193 150.139 59.6603 150.261 59.9693 150.347C60.2746 150.433 60.6442 150.5 61.078 150.547L62.3754 150.701C63.3789 150.812 64.195 151.082 64.8235 151.513C65.452 151.944 65.8195 152.586 65.9259 153.439C66.0199 154.137 65.9128 154.772 65.6046 155.342C65.2926 155.913 64.825 156.388 64.2016 156.767C63.5783 157.145 62.8459 157.389 62.0044 157.497C61.1479 157.608 60.3814 157.558 59.7049 157.348C59.0247 157.137 58.4724 156.794 58.048 156.318C57.6237 155.842 57.3615 155.261 57.2614 154.575L59.6 154.273Z" fill="black"/>
<path d="M47.2654 159.241L45.7747 147.7L48.2147 147.385L49.4062 156.61L49.4738 156.601L51.9026 154.603L52.1821 156.767L49.5589 158.945L47.2654 159.241Z" fill="black"/>
<path d="M38.4742 148.386C39.4439 148.264 40.3087 148.395 41.0686 148.778C41.8247 149.162 42.4486 149.778 42.9402 150.627C43.4281 151.477 43.7517 152.533 43.911 153.796C44.0736 155.055 44.0261 156.151 43.7688 157.086C43.5076 158.021 43.0594 158.764 42.4241 159.316C41.7855 159.872 40.9835 160.213 40.018 160.337C39.0526 160.462 38.1923 160.336 37.4371 159.96C36.6782 159.585 36.0536 158.978 35.5635 158.14C35.0738 157.306 34.7495 156.259 34.5907 155C34.4272 153.734 34.4753 152.628 34.735 151.681C34.9909 150.736 35.4358 149.981 36.0696 149.418C36.7035 148.855 37.505 148.511 38.4742 148.386ZM38.7355 150.408C38.0743 150.494 37.5895 150.895 37.2809 151.61C36.9724 152.326 36.9058 153.349 37.0814 154.678C37.1944 155.554 37.3787 156.271 37.6343 156.83C37.8861 157.389 38.1943 157.794 38.559 158.045C38.9199 158.296 39.3201 158.394 39.7596 158.337C40.4171 158.252 40.9005 157.855 41.2101 157.147C41.5196 156.439 41.5916 155.429 41.426 154.117C41.3114 153.231 41.1276 152.502 40.8743 151.931C40.6178 151.365 40.307 150.954 39.9418 150.7C39.5772 150.449 39.175 150.352 38.7355 150.408Z" fill="black"/>
<path d="M27.5494 149.797C28.5191 149.675 29.3839 149.806 30.1437 150.189C30.8999 150.573 31.5237 151.189 32.0154 152.038C32.5033 152.888 32.8269 153.945 32.9861 155.207C33.1487 156.466 33.1013 157.562 32.8439 158.497C32.5827 159.432 32.1345 160.175 31.4992 160.727C30.8607 161.283 30.0586 161.624 29.0932 161.749C28.1277 161.873 27.2674 161.748 26.5122 161.371C25.7533 160.996 25.1288 160.389 24.6386 159.551C24.1489 158.717 23.8247 157.67 23.6659 156.411C23.5023 155.145 23.5504 154.039 23.8101 153.093C24.066 152.147 24.5109 151.392 25.1448 150.829C25.7786 150.266 26.5801 149.922 27.5494 149.797ZM27.8107 151.82C27.1495 151.905 26.6646 152.306 26.3561 153.022C26.0475 153.737 25.981 154.76 26.1565 156.089C26.2696 156.965 26.4539 157.682 26.7094 158.241C26.9612 158.8 27.2694 159.206 27.6341 159.456C27.995 159.708 28.3953 159.805 28.8348 159.748C29.4922 159.663 29.9757 159.267 30.2852 158.558C30.5947 157.85 30.6667 156.84 30.5011 155.528C30.3866 154.642 30.2027 153.913 29.9495 153.342C29.693 152.776 29.3821 152.365 29.017 152.111C28.6523 151.86 28.2502 151.763 27.8107 151.82Z" fill="black"/>
<path d="M118.139 74.7806L107.097 78.4528L105.649 74.0965C105.371 73.2626 105.284 72.5014 105.386 71.8127C105.484 71.1216 105.752 70.5312 106.192 70.0416C106.627 69.5496 107.21 69.1823 107.939 68.9396C108.673 68.6958 109.356 68.6441 109.99 68.7847C110.62 68.9265 111.174 69.2509 111.654 69.7579C112.133 70.2613 112.514 70.9371 112.796 71.7854L113.766 74.7022L111.89 75.3262L111.045 72.7868C110.897 72.3411 110.713 71.9912 110.492 71.7371C110.272 71.483 110.016 71.3247 109.724 71.2622C109.43 71.1962 109.102 71.2235 108.739 71.3442C108.372 71.4661 108.088 71.6426 107.885 71.8737C107.681 72.1011 107.564 72.3855 107.534 72.7269C107.499 73.0659 107.557 73.46 107.706 73.9093L108.23 75.4836L117.363 72.4461L118.139 74.7806ZM111.131 70.4888L115.243 66.0734L116.1 68.6505L111.968 73.0066L111.131 70.4888Z" fill="black"/>
<path d="M114.994 60.7135L101.191 65.3038L100.897 64.4196L114.7 59.8293L114.994 60.7135ZM104.967 61.4434C104.547 61.6311 104.27 61.9286 104.138 62.3358C104.006 62.7429 104.034 63.2269 104.22 63.7876C104.347 64.1686 104.508 64.4724 104.703 64.6989C104.894 64.9266 105.107 65.0795 105.34 65.1575C105.573 65.2319 105.807 65.2297 106.045 65.1508C106.245 65.0922 106.403 64.9935 106.521 64.8546C106.637 64.7122 106.722 64.5421 106.776 64.3445C106.827 64.1481 106.856 63.9307 106.865 63.6924C106.87 63.4552 106.859 63.2073 106.833 62.9485L106.74 61.8776C106.688 61.3601 106.685 60.8702 106.731 60.4078C106.776 59.9455 106.882 59.5233 107.046 59.1413C107.21 58.7593 107.443 58.4283 107.745 58.1482C108.046 57.8645 108.426 57.6444 108.885 57.4878C109.562 57.2666 110.205 57.2443 110.815 57.4208C111.42 57.5949 111.965 57.9564 112.451 58.5054C112.932 59.0519 113.322 59.7745 113.621 60.6731C113.917 61.5644 114.039 62.3862 113.986 63.1384C113.931 63.8871 113.698 64.5355 113.286 65.0838C112.868 65.6298 112.266 66.0438 111.477 66.326L110.726 64.0669C111.088 63.9187 111.362 63.7098 111.547 63.4404C111.728 63.1687 111.829 62.8537 111.85 62.4956C111.866 62.135 111.807 61.7535 111.673 61.3509C111.541 60.9555 111.37 60.6314 111.158 60.3785C110.945 60.122 110.709 59.947 110.45 59.8534C110.192 59.7598 109.929 59.7572 109.663 59.8456C109.415 59.9281 109.231 60.0711 109.111 60.2747C108.99 60.4747 108.917 60.7345 108.892 61.0543C108.865 61.3705 108.87 61.7461 108.907 62.1809L109.005 63.4836C109.088 64.4899 108.979 65.3426 108.676 66.042C108.374 66.7413 107.814 67.2248 106.997 67.4926C106.33 67.7185 105.686 67.7349 105.067 67.5416C104.447 67.3447 103.891 66.9766 103.401 66.4372C102.91 65.8979 102.531 65.2256 102.263 64.4205C101.99 63.601 101.893 62.8391 101.97 62.1348C102.046 61.427 102.277 60.8192 102.663 60.3116C103.049 59.804 103.569 59.4354 104.223 59.2059L104.967 61.4434Z" fill="black"/>
<path d="M110.37 51.4194L108.688 51.9788L103.741 49.2588C103.307 49.0321 102.922 48.8485 102.588 48.7082C102.253 48.5642 101.941 48.4741 101.654 48.438C101.363 48.4031 101.072 48.434 100.781 48.5308C100.457 48.6384 100.203 48.8048 100.019 49.0298C99.8303 49.2561 99.7157 49.5177 99.6748 49.8148C99.6303 50.113 99.6618 50.4239 99.7694 50.7473C99.8818 51.0852 100.048 51.3572 100.268 51.5634C100.489 51.7696 100.749 51.8985 101.05 51.9502C101.35 52.002 101.677 51.9692 102.029 51.8521L102.766 54.068C102.043 54.3083 101.362 54.3533 100.721 54.2031C100.08 54.053 99.5164 53.7316 99.0292 53.2389C98.542 52.7463 98.1705 52.1154 97.9147 51.3462C97.6517 50.5554 97.563 49.8205 97.6485 49.1414C97.7292 48.4599 97.9614 47.8737 98.3451 47.3829C98.7287 46.892 99.2386 46.5408 99.8748 46.3292C100.292 46.1905 100.731 46.1363 101.192 46.1666C101.652 46.1933 102.199 46.3326 102.834 46.5846C103.465 46.8377 104.252 47.2288 105.194 47.7577L107.31 48.8443L107.385 48.8192L105.843 44.1826L107.752 43.5478L110.37 51.4194Z" fill="black"/>
<path d="M105.999 37.7732C106.252 38.5352 106.338 39.2612 106.256 39.9511C106.173 40.6374 105.943 41.2367 105.567 41.7491C105.19 42.2616 104.686 42.6307 104.055 42.8567L103.302 40.5923C103.721 40.4249 104.008 40.1298 104.163 39.7071C104.318 39.2843 104.319 38.8429 104.166 38.3829C104.044 38.0163 103.856 37.7197 103.601 37.4931C103.341 37.2641 103.039 37.119 102.695 37.0577C102.347 36.9939 101.982 37.0254 101.601 37.1521C101.213 37.2813 100.899 37.4775 100.659 37.7408C100.418 38.0006 100.263 38.3018 100.193 38.6443C100.123 38.9868 100.148 39.3438 100.268 39.7152C100.375 40.0387 100.547 40.3311 100.781 40.5924C101.015 40.8501 101.274 41.0251 101.561 41.1175L101.879 43.317L95.8822 44.7305L93.6373 37.9804L95.5458 37.3457L97.1506 42.171L100.011 41.5369L99.99 41.4722C99.6523 41.369 99.3284 41.1514 99.0184 40.8193C98.7084 40.4873 98.4727 40.0787 98.3113 39.5935C98.0901 38.9285 98.0493 38.2835 98.1886 37.6583C98.328 37.0331 98.6207 36.4787 99.0666 35.9951C99.5089 35.5127 100.085 35.1555 100.794 34.9236C101.537 34.6726 102.256 34.6252 102.95 34.7814C103.64 34.9352 104.254 35.268 104.791 35.7798C105.324 36.2893 105.726 36.9537 105.999 37.7732Z" fill="black"/>
<path d="M81.1746 190.175L88.3915 199.303L84.7902 202.151C84.1009 202.696 83.415 203.038 82.7327 203.176C82.0498 203.32 81.4032 203.269 80.793 203.022C80.1821 202.781 79.6382 202.359 79.1613 201.755C78.682 201.149 78.4005 200.524 78.3166 199.881C78.2351 199.24 78.3508 198.608 78.6638 197.984C78.9738 197.362 79.4794 196.774 80.1807 196.22L82.5919 194.313L83.8183 195.864L81.719 197.524C81.3505 197.815 81.0844 198.108 80.9206 198.402C80.7569 198.695 80.6954 198.99 80.7363 199.286C80.7742 199.584 80.9118 199.884 81.1491 200.184C81.3887 200.487 81.6517 200.694 81.938 200.806C82.2213 200.92 82.5285 200.933 82.8597 200.845C83.1903 200.762 83.5413 200.574 83.9127 200.28L85.2142 199.251L79.2447 191.701L81.1746 190.175ZM79.5294 198.227L73.9765 195.866L76.1069 194.182L81.6108 196.581L79.5294 198.227Z" fill="white"/>
<path d="M69.0229 197.929L78.044 209.339L77.3131 209.917L68.2919 198.506L69.0229 197.929ZM73.1275 207.105C73.4474 207.437 73.8213 207.595 74.2491 207.58C74.6769 207.566 75.1226 207.375 75.5861 207.009C75.9011 206.759 76.1317 206.505 76.2782 206.244C76.427 205.986 76.4982 205.734 76.4919 205.488C76.4827 205.245 76.4005 205.025 76.2455 204.828C76.1222 204.66 75.9753 204.545 75.8047 204.482C75.6311 204.421 75.4422 204.399 75.238 204.415C75.0362 204.435 74.8218 204.481 74.5948 204.555C74.3701 204.631 74.1407 204.725 73.9063 204.838L72.9312 205.29C72.4625 205.516 72.0031 205.686 71.5528 205.801C71.1026 205.915 70.6699 205.96 70.2547 205.936C69.8396 205.912 69.4489 205.806 69.0826 205.617C68.7133 205.431 68.3769 205.149 68.0732 204.771C67.6345 204.21 67.3942 203.613 67.3523 202.98C67.3097 202.352 67.4637 201.716 67.814 201.072C68.1637 200.433 68.71 199.82 69.4529 199.233C70.1898 198.65 70.9209 198.256 71.6461 198.049C72.3684 197.845 73.0576 197.843 73.7137 198.044C74.3692 198.25 74.964 198.676 75.498 199.321L73.6305 200.797C73.3677 200.508 73.078 200.321 72.7614 200.239C72.4442 200.161 72.1137 200.174 71.77 200.276C71.4257 200.384 71.0871 200.57 70.7543 200.833C70.4275 201.092 70.1813 201.363 70.0158 201.649C69.8473 201.937 69.7632 202.218 69.7634 202.493C69.7636 202.768 69.8506 203.016 70.0244 203.235C70.1865 203.44 70.3837 203.565 70.616 203.608C70.8452 203.654 71.1145 203.634 71.4238 203.549C71.7301 203.466 72.0814 203.333 72.4776 203.15L73.6689 202.614C74.5865 202.193 75.4255 202.005 76.186 202.051C76.9465 202.096 77.5919 202.458 78.1222 203.135C78.5622 203.685 78.7968 204.284 78.8262 204.932C78.8527 205.582 78.696 206.23 78.3563 206.875C78.0166 207.521 77.5139 208.106 76.8484 208.633C76.1709 209.168 75.488 209.52 74.7996 209.687C74.1082 209.857 73.4582 209.847 72.8493 209.658C72.2405 209.468 71.7167 209.104 71.2778 208.568L73.1275 207.105Z" fill="white"/>
<path d="M61.8622 205.444L62.9616 206.835L62.0911 212.412C62.0262 212.898 61.9847 213.322 61.9666 213.684C61.9456 214.048 61.9671 214.372 62.0312 214.654C62.0976 214.94 62.2259 215.203 62.4162 215.444C62.6276 215.711 62.8706 215.893 63.1451 215.99C63.422 216.09 63.707 216.108 64.0002 216.045C64.2958 215.986 64.5773 215.85 64.8447 215.639C65.124 215.418 65.323 215.169 65.4417 214.891C65.5605 214.614 65.5929 214.325 65.539 214.025C65.4851 213.725 65.343 213.429 65.1128 213.138L66.9447 211.689C67.4169 212.287 67.6916 212.912 67.7689 213.566C67.8462 214.219 67.7363 214.859 67.4393 215.485C67.1423 216.111 66.6759 216.675 66.04 217.178C65.3863 217.695 64.7257 218.029 64.0581 218.18C63.3899 218.336 62.7597 218.318 62.1674 218.125C61.5752 217.931 61.0712 217.572 60.6553 217.046C60.3828 216.701 60.1822 216.307 60.0534 215.863C59.9216 215.422 59.866 214.86 59.8865 214.177C59.9093 213.497 60.0087 212.625 60.1846 211.558L60.4848 209.199L60.4354 209.136L56.6023 212.167L55.3549 210.589L61.8622 205.444Z" fill="white"/>
<path d="M50.5239 214.206C51.1539 213.708 51.8071 213.38 52.4836 213.221C53.1571 213.066 53.7989 213.077 54.409 213.256C55.019 213.436 55.5379 213.784 55.9656 214.3L54.0937 215.78C53.7933 215.443 53.418 215.274 52.9678 215.272C52.5177 215.271 52.1024 215.421 51.7221 215.721C51.419 215.961 51.2044 216.239 51.0784 216.556C50.9517 216.878 50.9181 217.212 50.9777 217.556C51.0366 217.905 51.1906 218.237 51.4396 218.552C51.6933 218.873 51.9848 219.101 52.3142 219.237C52.6405 219.375 52.9766 219.418 53.3224 219.367C53.6681 219.316 53.9952 219.17 54.3036 218.931C54.571 218.72 54.7876 218.459 54.9532 218.15C55.1159 217.843 55.1919 217.539 55.1812 217.238L57.1403 216.189L60.5138 221.344L54.9335 225.756L53.6861 224.178L57.6751 221.025L56.1036 218.551L56.0501 218.594C56.0682 218.946 55.974 219.325 55.7676 219.73C55.5612 220.134 55.2574 220.495 54.8563 220.812C54.3066 221.247 53.7141 221.505 53.0789 221.587C52.4437 221.67 51.8227 221.583 51.216 221.329C50.6117 221.078 50.0796 220.658 49.6198 220.071C49.1305 219.458 48.8409 218.798 48.7509 218.092C48.6602 217.391 48.7639 216.701 49.0618 216.021C49.3591 215.346 49.8465 214.741 50.5239 214.206Z" fill="white"/>
<path d="M169.478 217.126L180.006 212.168L181.962 216.322C182.336 217.117 182.514 217.862 182.494 218.558C182.479 219.256 182.282 219.874 181.904 220.412C181.53 220.953 180.996 221.387 180.3 221.714C179.601 222.043 178.928 222.176 178.283 222.112C177.64 222.046 177.051 221.79 176.514 221.343C175.979 220.9 175.521 220.274 175.14 219.466L173.83 216.685L175.619 215.842L176.759 218.263C176.959 218.688 177.184 219.014 177.433 219.24C177.681 219.466 177.955 219.593 178.252 219.62C178.551 219.651 178.874 219.585 179.22 219.422C179.57 219.257 179.831 219.048 180.005 218.795C180.18 218.544 180.263 218.248 180.252 217.906C180.247 217.565 180.143 217.18 179.941 216.752L179.234 215.251L170.527 219.352L169.478 217.126ZM176.947 220.555L173.388 225.428L172.231 222.971L175.816 218.155L176.947 220.555Z" fill="white"/>
<path d="M174.273 230.72L187.432 224.523L187.829 225.366L174.67 231.563L174.273 230.72ZM184.142 228.804C184.537 228.568 184.776 228.24 184.859 227.82C184.941 227.4 184.857 226.922 184.605 226.388C184.434 226.025 184.238 225.742 184.017 225.54C183.8 225.337 183.571 225.21 183.33 225.161C183.09 225.114 182.858 225.145 182.631 225.251C182.44 225.333 182.294 225.45 182.194 225.602C182.095 225.757 182.031 225.936 182.001 226.139C181.974 226.34 181.97 226.559 181.99 226.797C182.013 227.033 182.053 227.278 182.11 227.531L182.329 228.584C182.443 229.091 182.504 229.577 182.514 230.042C182.523 230.506 182.469 230.938 182.351 231.337C182.233 231.736 182.041 232.092 181.775 232.406C181.51 232.724 181.159 232.987 180.722 233.197C180.076 233.497 179.44 233.596 178.813 233.493C178.192 233.392 177.608 233.098 177.06 232.611C176.517 232.125 176.044 231.454 175.641 230.597C175.24 229.747 175.022 228.946 174.986 228.193C174.951 227.443 175.105 226.771 175.45 226.178C175.799 225.586 176.348 225.104 177.098 224.73L178.112 226.883C177.77 227.074 177.523 227.314 177.371 227.603C177.223 227.895 177.161 228.219 177.183 228.577C177.21 228.937 177.314 229.309 177.495 229.693C177.672 230.07 177.881 230.371 178.121 230.597C178.363 230.826 178.618 230.972 178.886 231.034C179.154 231.097 179.415 231.068 179.669 230.949C179.905 230.837 180.071 230.673 180.166 230.457C180.262 230.244 180.304 229.977 180.291 229.657C180.28 229.34 180.23 228.967 180.142 228.54L179.89 227.258C179.688 226.269 179.695 225.409 179.913 224.679C180.13 223.949 180.628 223.402 181.407 223.039C182.043 222.735 182.68 222.643 183.318 222.761C183.957 222.883 184.552 223.182 185.104 223.66C185.655 224.137 186.112 224.759 186.473 225.527C186.841 226.308 187.029 227.053 187.036 227.762C187.044 228.473 186.887 229.104 186.564 229.654C186.241 230.204 185.769 230.632 185.146 230.937L184.142 228.804Z" fill="white"/>
<path d="M179.968 239.399L181.572 238.644L186.807 240.757C187.265 240.93 187.669 241.067 188.017 241.167C188.367 241.27 188.687 241.322 188.977 241.324C189.27 241.324 189.555 241.259 189.833 241.128C190.141 240.983 190.374 240.787 190.53 240.542C190.69 240.295 190.773 240.021 190.778 239.722C190.787 239.42 190.719 239.115 190.574 238.807C190.422 238.485 190.224 238.234 189.981 238.056C189.738 237.877 189.464 237.78 189.159 237.765C188.855 237.749 188.535 237.82 188.199 237.978L187.204 235.866C187.892 235.541 188.564 235.416 189.218 235.489C189.872 235.562 190.47 235.814 191.012 236.245C191.555 236.676 191.998 237.259 192.344 237.992C192.699 238.746 192.874 239.465 192.87 240.149C192.871 240.836 192.71 241.445 192.387 241.978C192.065 242.511 191.6 242.921 190.994 243.206C190.596 243.393 190.167 243.499 189.705 243.524C189.245 243.552 188.685 243.479 188.025 243.304C187.369 243.128 186.541 242.833 185.543 242.42L183.313 241.592L183.241 241.626L185.323 246.047L183.503 246.904L179.968 239.399Z" fill="white"/>
<path d="M185.93 252.429C185.587 251.703 185.416 250.992 185.415 250.297C185.416 249.606 185.573 248.984 185.886 248.43C186.199 247.877 186.656 247.45 187.256 247.151L188.273 249.31C187.876 249.526 187.626 249.853 187.523 250.291C187.419 250.729 187.471 251.168 187.677 251.606C187.842 251.956 188.064 252.228 188.344 252.422C188.629 252.619 188.946 252.727 189.295 252.747C189.649 252.769 190.007 252.695 190.37 252.523C190.74 252.349 191.029 252.117 191.235 251.827C191.444 251.54 191.562 251.223 191.591 250.875C191.619 250.526 191.552 250.175 191.389 249.82C191.244 249.512 191.039 249.242 190.775 249.01C190.513 248.782 190.234 248.639 189.939 248.581L189.362 246.435L195.148 244.319L198.179 250.755L196.359 251.612L194.193 247.011L191.427 247.981L191.457 248.043C191.804 248.105 192.152 248.283 192.499 248.575C192.846 248.868 193.129 249.246 193.347 249.709C193.645 250.342 193.762 250.978 193.698 251.615C193.634 252.253 193.409 252.838 193.024 253.371C192.642 253.903 192.113 254.326 191.436 254.64C190.729 254.978 190.021 255.11 189.312 255.038C188.609 254.967 187.96 254.709 187.366 254.265C186.776 253.823 186.298 253.211 185.93 252.429Z" fill="white"/>
</svg>
